<svg version="1.1" viewBox="0.0 0.0 960.0 720.0" fill="none" stroke="none" stroke-linecap="square" stroke-miterlimit="10" xmlns:xlink="http://www.w3.org/1999/xlink" xmlns="http://www.w3.org/2000/svg"><clipPath id="p.0"><path d="m0 0l960.0 0l0 720.0l-960.0 0l0 -720.0z" clip-rule="nonzero"/></clipPath><g clip-path="url(#p.0)"><path fill="#000000" fill-opacity="0.0" d="m0 0l960.0 0l0 720.0l-960.0 0z" fill-rule="evenodd"/><path fill="#ffffff" d="m129.23097 360.00262l0 0c0 -198.82251 161.17747 -360.0 360.0 -360.0l0 0c95.47797 0 187.04535 37.928463 254.55847 105.44156c67.51306 67.51309 105.44153 159.0805 105.44153 254.55844l0 0c0 198.82251 -161.17749 360.0 -360.0 360.0l0 0c-198.82251 0 -360.0 -161.17749 -360.0 -360.0z" fill-rule="evenodd"/><path fill="#ff4000" d="m357.5089 493.08566l122.191925 0l-122.191925 120.38895z" fill-rule="evenodd"/><path stroke="#ff4000" stroke-width="1.0" stroke-linejoin="round" stroke-linecap="butt" d="m357.5089 493.08566l122.191925 0l-122.191925 120.38895z" fill-rule="evenodd"/><path fill="#ff610e" d="m357.5089 493.08566l0 120.38895l-122.191925 -120.38895z" fill-rule="evenodd"/><path stroke="#ff610e" stroke-width="1.0" stroke-linejoin="round" stroke-linecap="butt" d="m357.5089 493.08566l0 120.38895l-122.191925 -120.38895z" fill-rule="evenodd"/><path fill="#ff610e" d="m235.31699 218.3528l101.8262 0l0 0c5.4013367 0 10.581421 2.1456757 14.400726 5.964981c3.819336 3.8193207 5.9649963 8.99942 5.9649963 14.400742l0 254.36714l-122.191925 0z" fill-rule="evenodd"/><path stroke="#ff610e" stroke-width="1.0" stroke-linejoin="round" stroke-linecap="butt" d="m235.31699 218.3528l101.8262 0l0 0c5.4013367 0 10.581421 2.1456757 14.400726 5.964981c3.819336 3.8193207 5.9649963 8.99942 5.9649963 14.400742l0 254.36714l-122.191925 0z" fill-rule="evenodd"/><path fill="#ff4000" d="m653.6965 218.3528l101.82617 0l0 0c5.401367 0 10.581482 2.1456757 14.400757 5.964981c3.819336 3.8193207 5.965027 8.99942 5.965027 14.400742l0 261.55176l-122.191956 0z" fill-rule="evenodd"/><path stroke="#ff4000" stroke-width="1.0" stroke-linejoin="round" stroke-linecap="butt" d="m653.6965 218.3528l101.82617 0l0 0c5.401367 0 10.581482 2.1456757 14.400757 5.964981c3.819336 3.8193207 5.965027 8.99942 5.965027 14.400742l0 261.55176l-122.191956 0z" fill-rule="evenodd"/><path fill="#ff610e" d="m603.2957 493.08566l0 120.38895l-122.191925 -120.38895z" fill-rule="evenodd"/><path stroke="#ff610e" stroke-width="1.0" stroke-linejoin="round" stroke-linecap="butt" d="m603.2957 493.08566l0 120.38895l-122.191925 -120.38895z" fill-rule="evenodd"/><path fill="#ff610e" d="m481.1038 218.3528l101.8262 0l0 0c5.401367 0 10.581421 2.1456757 14.400757 5.964981c3.819336 3.8193207 5.964966 8.99942 5.964966 14.400742l0 254.36714l-122.191925 0z" fill-rule="evenodd"/><path stroke="#ff610e" stroke-width="1.0" stroke-linejoin="round" stroke-linecap="butt" d="m481.1038 218.3528l101.8262 0l0 0c5.401367 0 10.581421 2.1456757 14.400757 5.964981c3.819336 3.8193207 5.964966 8.99942 5.964966 14.400742l0 254.36714l-122.191925 0z" fill-rule="evenodd"/><path fill="#ff4000" d="m775.899 494.52258l0 59.476013l0 0c0 15.773987 -6.2662354 30.901978 -17.420105 42.05591c-11.153931 11.15387 -26.281921 17.420105 -42.05591 17.420105l-113.12726 0l0 -118.95203z" fill-rule="evenodd"/><path stroke="#ff4000" stroke-width="1.0" stroke-linejoin="round" stroke-linecap="butt" d="m775.899 494.52258l0 59.476013l0 0c0 15.773987 -6.2662354 30.901978 -17.420105 42.05591c-11.153931 11.15387 -26.281921 17.420105 -42.05591 17.420105l-113.12726 0l0 -118.95203z" fill-rule="evenodd"/><path fill="#ff610e" d="m235.31563 133.55962l0 0c0 -33.158173 26.88002 -60.038177 60.038162 -60.038177l0 0c15.923126 0 31.194061 6.325432 42.4534 17.58477c11.259369 11.259346 17.584778 26.530289 17.584778 42.453407l0 0c0 33.158157 -26.880005 60.038162 -60.038177 60.038162l0 0c-33.158142 0 -60.038162 -26.880005 -60.038162 -60.038162z" fill-rule="evenodd"/><path stroke="#ff610e" stroke-width="1.0" stroke-linejoin="round" stroke-linecap="butt" d="m235.31563 133.55962l0 0c0 -33.158173 26.88002 -60.038177 60.038162 -60.038177l0 0c15.923126 0 31.194061 6.325432 42.4534 17.58477c11.259369 11.259346 17.584778 26.530289 17.584778 42.453407l0 0c0 33.158157 -26.880005 60.038162 -60.038177 60.038162l0 0c-33.158142 0 -60.038162 -26.880005 -60.038162 -60.038162z" fill-rule="evenodd"/></g></svg>