<svg version="1.1" viewBox="0.0 0.0 960.0 720.0" fill="none" stroke="none" stroke-linecap="square" stroke-miterlimit="10" xmlns:xlink="http://www.w3.org/1999/xlink" xmlns="http://www.w3.org/2000/svg"><clipPath id="p.0"><path d="m0 0l960.0 0l0 720.0l-960.0 0l0 -720.0z" clip-rule="nonzero"/></clipPath><g clip-path="url(#p.0)"><path fill="#000000" fill-opacity="0.0" d="m0 0l960.0 0l0 720.0l-960.0 0z" fill-rule="evenodd"/><path fill="#ffffff" d="m134.23097 360.0l0 0c0 -198.82251 161.17747 -360.0 360.0 -360.0l0 0c95.47797 0 187.04535 37.928463 254.55847 105.44156c67.51306 67.51309 105.44153 159.0805 105.44153 254.55844l0 0c0 198.82251 -161.17749 360.0 -360.0 360.0l0 0c-198.82251 0 -360.0 -161.17749 -360.0 -360.0z" fill-rule="evenodd"/><path fill="#ff4000" d="m364.2672 448.99277l120.62494 0l-120.62494 105.685394z" fill-rule="evenodd"/><path stroke="#ff4000" stroke-width="1.0" stroke-linejoin="round" stroke-linecap="butt" d="m364.2672 448.99277l120.62494 0l-120.62494 105.685394z" fill-rule="evenodd"/><path fill="#ff610e" d="m363.55685 448.95862l0 105.69879l-120.63713 -105.69879z" fill-rule="evenodd"/><path stroke="#ff610e" stroke-width="1.0" stroke-linejoin="round" stroke-linecap="butt" d="m363.55685 448.95862l0 105.69879l-120.63713 -105.69879z" fill-rule="evenodd"/><path fill="#ff610e" d="m242.93236 207.80302l95.3745 0l0 0c6.7000732 0 13.125732 2.6615753 17.863373 7.399246c4.737671 4.7376556 7.3992615 11.1633 7.3992615 17.863373l0 215.92532l-120.63713 0z" fill-rule="evenodd"/><path stroke="#ff610e" stroke-width="1.0" stroke-linejoin="round" stroke-linecap="butt" d="m242.93236 207.80302l95.3745 0l0 0c6.7000732 0 13.125732 2.6615753 17.863373 7.399246c4.737671 4.7376556 7.3992615 11.1633 7.3992615 17.863373l0 215.92532l-120.63713 0z" fill-rule="evenodd"/><path fill="#ff610e" d="m244.10222 134.65965l0 0c0 -33.84131 26.476547 -61.27511 59.13707 -61.27511l0 0c15.684113 0 30.72586 6.455757 41.816223 17.947067c11.090332 11.49131 17.320831 27.076874 17.320831 43.32804l0 0c0 33.84131 -26.476562 61.2751 -59.137054 61.2751l0 0c-32.660522 0 -59.13707 -27.433792 -59.13707 -61.2751z" fill-rule="evenodd"/><path stroke="#ff610e" stroke-width="1.0" stroke-linejoin="round" stroke-linecap="butt" d="m244.10222 134.65965l0 0c0 -33.84131 26.476547 -61.27511 59.13707 -61.27511l0 0c15.684113 0 30.72586 6.455757 41.816223 17.947067c11.090332 11.49131 17.320831 27.076874 17.320831 43.32804l0 0c0 33.84131 -26.476562 61.2751 -59.137054 61.2751l0 0c-32.660522 0 -59.13707 -27.433792 -59.13707 -61.2751z" fill-rule="evenodd"/><path fill="#ff610e" d="m486.65277 711.9816l59.137085 -0.015380859l0 0c15.684082 -0.0040893555 30.72583 -6.2385254 41.816223 -17.331726c11.090332 -11.093262 17.3208 -26.136658 17.3208 -41.82074l0 -211.2251l-118.27411 0.030792236z" fill-rule="evenodd"/><path stroke="#ff610e" stroke-width="3.0" stroke-linejoin="round" stroke-linecap="butt" d="m486.65277 711.9816l59.137085 -0.015380859l0 0c15.684082 -0.0040893555 30.72583 -6.2385254 41.816223 -17.331726c11.090332 -11.093262 17.3208 -26.136658 17.3208 -41.82074l0 -211.2251l-118.27411 0.030792236z" fill-rule="evenodd"/><path fill="#ff610e" d="m485.55008 203.75974l89.13388 0l0 0c8.346924 0 16.35199 3.3158112 22.25415 9.217972c5.9021606 5.902176 9.218018 13.907242 9.218018 22.25418l0 213.75151l-120.60605 0z" fill-rule="evenodd"/><path stroke="#ff610e" stroke-width="1.0" stroke-linejoin="round" stroke-linecap="butt" d="m485.55008 203.75974l89.13388 0l0 0c8.346924 0 16.35199 3.3158112 22.25415 9.217972c5.9021606 5.902176 9.218018 13.907242 9.218018 22.25418l0 213.75151l-120.60605 0z" fill-rule="evenodd"/><path fill="#ff4000" d="m776.6116 313.20465l-0.01574707 -54.724396l0 0c-0.004211426 -14.513809 -5.7738037 -28.433182 -16.03955 -38.696c-10.265808 -10.262817 -24.186829 -16.028412 -38.700623 -16.028412l-115.66931 0l0.03149414 109.44881z" fill-rule="evenodd"/><path stroke="#ff4000" stroke-width="1.0" stroke-linejoin="round" stroke-linecap="butt" d="m776.6116 313.20465l-0.01574707 -54.724396l0 0c-0.004211426 -14.513809 -5.7738037 -28.433182 -16.03955 -38.696c-10.265808 -10.262817 -24.186829 -16.028412 -38.700623 -16.028412l-115.66931 0l0.03149414 109.44881z" fill-rule="evenodd"/><path fill="#ff4000" d="m655.6011 554.6772l60.503906 -0.01574707l0 0c16.04663 -0.004211426 31.436035 -6.3826904 42.782776 -17.73236c11.34668 -11.349609 17.721191 -26.740692 17.721191 -42.787354l0 -206.80313l-121.00787 0.03149414z" fill-rule="evenodd"/><path stroke="#ff4000" stroke-width="1.0" stroke-linejoin="round" stroke-linecap="butt" d="m655.6011 554.6772l60.503906 -0.01574707l0 0c16.04663 -0.004211426 31.436035 -6.3826904 42.782776 -17.73236c11.34668 -11.349609 17.721191 -26.740692 17.721191 -42.787354l0 -206.80313l-121.00787 0.03149414z" fill-rule="evenodd"/><path fill="#ff4000" d="m607.6008 448.9849l-120.629944 0l120.629944 105.700775z" fill-rule="evenodd"/><path stroke="#ff4000" stroke-width="1.0" stroke-linejoin="round" stroke-linecap="butt" d="m607.6008 448.9849l-120.629944 0l120.629944 105.700775z" fill-rule="evenodd"/><path fill="#ff4000" d="m776.6116 448.76114l-0.01574707 52.960632l0 0c-0.004211426 14.04599 -5.5879517 27.516754 -15.522949 37.448822c-9.934998 9.932007 -23.40741 15.51178 -37.45343 15.51178l-117.433105 0l0.03149414 -105.921234z" fill-rule="evenodd"/><path stroke="#ff4000" stroke-width="1.0" stroke-linejoin="round" stroke-linecap="butt" d="m776.6116 448.76114l-0.01574707 52.960632l0 0c-0.004211426 14.04599 -5.5879517 27.516754 -15.522949 37.448822c-9.934998 9.932007 -23.40741 15.51178 -37.45343 15.51178l-117.433105 0l0.03149414 -105.921234z" fill-rule="evenodd"/></g></svg>